<?xml version="1.0" encoding="UTF-8"?>
<svg id="Layer_2" data-name="Layer 2" xmlns="http://www.w3.org/2000/svg" xmlns:xlink="http://www.w3.org/1999/xlink" viewBox="0 0 301.75 269.74">
  <defs>
    <style>
      .cls-1 {
        fill: url(#linear-gradient);
        stroke-width: 0px;
      }
    </style>
    <linearGradient id="linear-gradient" x1="-5.5" y1="271.23" x2="304.82" y2=".63" gradientUnits="userSpaceOnUse">
      <stop offset="0" stop-color="#f20a0a"/>
      <stop offset="1" stop-color="#f2195c"/>
    </linearGradient>
  </defs>
  <g id="Layer_1-2" data-name="Layer 1">
    <path class="cls-1" d="M301.75,0v269.74h-121.08V98.59h91.71v-55.22h-85.71c-10.26,0-20.2,3.78-27.88,10.6l-22.31,19.86c-7.84,6.97-17.97,10.81-28.44,10.81-5.24,0-10.41-.96-15.24-2.79-4.8-1.83-9.33-4.52-13.23-8.02l-22.31-19.86c-7.68-6.82-17.6-10.6-27.88-10.6v55.22h135.46c-.09,6.48-1.58,12.76-4.21,18.5-2.76,5.92-6.79,11.25-11.9,15.55l-10.1,8.52c-10.19,8.61-16.11,21.29-16.11,34.67v93.91H0V0h301.75Z"/>
  </g>
</svg>